<svg width="70" height="88" viewBox="0 0 70 88" fill="none" xmlns="http://www.w3.org/2000/svg">
<path d="M34.12 87.32C29.72 87.32 25.4 86.96 21.16 86.24C16.92 85.52 13 84.48 9.4 83.12C5.8 81.76 2.68 80.16 0.0400004 78.32L6.16 61.16C8.64 62.76 11.4 64.16 14.44 65.36C17.48 66.56 20.68 67.52 24.04 68.24C27.4 68.88 30.76 69.2 34.12 69.2C39.4 69.2 43.08 68.52 45.16 67.16C47.32 65.72 48.4 63.96 48.4 61.88C48.4 60.6 48.08 59.52 47.44 58.64C46.8 57.76 45.72 57 44.2 56.36C42.76 55.64 40.8 55.04 38.32 54.56L24.28 51.56C16.6 49.96 10.88 47.16 7.12 43.16C3.36 39.16 1.48 34 1.48 27.68C1.48 22.08 2.96 17.24 5.92 13.16C8.96 8.99999 13.16 5.8 18.52 3.56C23.96 1.24 30.2 0.0799975 37.24 0.0799975C41.16 0.0799975 44.92 0.439998 48.52 1.16C52.2 1.88 55.6 2.96 58.72 4.4C61.84 5.76 64.48 7.35999 66.64 9.19999L60.52 25.28C57.48 23.04 53.92 21.32 49.84 20.12C45.84 18.84 41.56 18.2 37 18.2C34.04 18.2 31.52 18.56 29.44 19.28C27.36 19.92 25.76 20.88 24.64 22.16C23.6 23.44 23.08 24.92 23.08 26.6C23.08 28.28 23.76 29.72 25.12 30.92C26.56 32.04 29.16 33 32.92 33.8L46.84 36.8C54.6 38.48 60.4 41.24 64.24 45.08C68.08 48.92 70 53.92 70 60.08C70 65.52 68.52 70.32 65.56 74.48C62.6 78.56 58.44 81.72 53.08 83.96C47.72 86.2 41.4 87.32 34.12 87.32Z" fill="#3EF0B3"/>
</svg>
